<mxfile host="app.diagrams.net" agent="Mozilla/5.0 (Windows NT 10.0; Win64; x64) AppleWebKit/537.36 (KHTML, like Gecko) Chrome/126.0.0.0 Safari/537.36 OPR/112.0.0.0" version="24.7.7">
  <diagram name="Page-1" id="e7e014a7-5840-1c2e-5031-d8a46d1fe8dd">
    <mxGraphModel dx="1341" dy="760" grid="1" gridSize="10" guides="1" tooltips="1" connect="1" arrows="1" fold="1" page="1" pageScale="1" pageWidth="1169" pageHeight="826" background="none" math="0" shadow="0">
      <root>
        <mxCell id="0" />
        <mxCell id="1" parent="0" />
        <mxCell id="74DpVo1cie8Z_NDiLxF8-41" value="" style="ellipse;html=1;shape=startState;fillColor=#000000;strokeColor=#ff0000;" parent="1" vertex="1">
          <mxGeometry x="430" y="130" width="30" height="30" as="geometry" />
        </mxCell>
        <mxCell id="74DpVo1cie8Z_NDiLxF8-42" value="" style="edgeStyle=orthogonalEdgeStyle;html=1;verticalAlign=bottom;endArrow=open;endSize=8;strokeColor=#ff0000;rounded=0;" parent="1" source="74DpVo1cie8Z_NDiLxF8-41" target="XFyrsyvMlEconvTyk-SM-2" edge="1">
          <mxGeometry relative="1" as="geometry">
            <mxPoint x="445" y="220" as="targetPoint" />
          </mxGeometry>
        </mxCell>
        <mxCell id="74DpVo1cie8Z_NDiLxF8-45" value="" style="edgeStyle=orthogonalEdgeStyle;rounded=0;orthogonalLoop=1;jettySize=auto;html=1;" parent="1" source="XFyrsyvMlEconvTyk-SM-2" target="XFyrsyvMlEconvTyk-SM-3" edge="1">
          <mxGeometry relative="1" as="geometry">
            <mxPoint x="445" y="290" as="sourcePoint" />
            <mxPoint x="445" y="370" as="targetPoint" />
          </mxGeometry>
        </mxCell>
        <mxCell id="74DpVo1cie8Z_NDiLxF8-47" value="" style="edgeStyle=orthogonalEdgeStyle;rounded=0;orthogonalLoop=1;jettySize=auto;html=1;" parent="1" source="XFyrsyvMlEconvTyk-SM-3" target="74DpVo1cie8Z_NDiLxF8-46" edge="1">
          <mxGeometry relative="1" as="geometry">
            <mxPoint x="445" y="440" as="sourcePoint" />
          </mxGeometry>
        </mxCell>
        <mxCell id="74DpVo1cie8Z_NDiLxF8-52" value="" style="edgeStyle=orthogonalEdgeStyle;rounded=0;orthogonalLoop=1;jettySize=auto;html=1;" parent="1" source="74DpVo1cie8Z_NDiLxF8-46" target="XFyrsyvMlEconvTyk-SM-4" edge="1">
          <mxGeometry relative="1" as="geometry">
            <mxPoint x="280" y="640" as="targetPoint" />
          </mxGeometry>
        </mxCell>
        <mxCell id="74DpVo1cie8Z_NDiLxF8-46" value="Login e senha corretos?" style="rhombus;whiteSpace=wrap;html=1;" parent="1" vertex="1">
          <mxGeometry x="392.5" y="510" width="105" height="95" as="geometry" />
        </mxCell>
        <mxCell id="74DpVo1cie8Z_NDiLxF8-50" value="Se sim" style="text;html=1;align=center;verticalAlign=middle;resizable=0;points=[];autosize=1;strokeColor=none;fillColor=none;" parent="1" vertex="1">
          <mxGeometry x="340" y="530" width="60" height="30" as="geometry" />
        </mxCell>
        <mxCell id="74DpVo1cie8Z_NDiLxF8-54" value="" style="edgeStyle=orthogonalEdgeStyle;rounded=0;orthogonalLoop=1;jettySize=auto;html=1;" parent="1" source="74DpVo1cie8Z_NDiLxF8-46" target="XFyrsyvMlEconvTyk-SM-6" edge="1">
          <mxGeometry relative="1" as="geometry">
            <mxPoint x="630" y="640" as="targetPoint" />
          </mxGeometry>
        </mxCell>
        <mxCell id="74DpVo1cie8Z_NDiLxF8-59" value="" style="edgeStyle=orthogonalEdgeStyle;rounded=0;orthogonalLoop=1;jettySize=auto;html=1;" parent="1" source="XFyrsyvMlEconvTyk-SM-6" target="74DpVo1cie8Z_NDiLxF8-60" edge="1">
          <mxGeometry relative="1" as="geometry">
            <mxPoint x="630" y="780" as="targetPoint" />
            <mxPoint x="630" y="710" as="sourcePoint" />
          </mxGeometry>
        </mxCell>
        <mxCell id="74DpVo1cie8Z_NDiLxF8-55" value="Se não" style="text;html=1;align=center;verticalAlign=middle;resizable=0;points=[];autosize=1;strokeColor=none;fillColor=none;" parent="1" vertex="1">
          <mxGeometry x="490" y="530" width="60" height="30" as="geometry" />
        </mxCell>
        <mxCell id="74DpVo1cie8Z_NDiLxF8-64" style="edgeStyle=orthogonalEdgeStyle;rounded=0;orthogonalLoop=1;jettySize=auto;html=1;" parent="1" source="74DpVo1cie8Z_NDiLxF8-60" target="2-5P5KqRT0Zb7ZeZS0hx-3" edge="1">
          <mxGeometry relative="1" as="geometry">
            <mxPoint x="480" y="930" as="targetPoint" />
          </mxGeometry>
        </mxCell>
        <mxCell id="XFyrsyvMlEconvTyk-SM-8" value="" style="edgeStyle=orthogonalEdgeStyle;rounded=0;orthogonalLoop=1;jettySize=auto;html=1;" edge="1" parent="1" source="74DpVo1cie8Z_NDiLxF8-60" target="XFyrsyvMlEconvTyk-SM-57">
          <mxGeometry relative="1" as="geometry">
            <mxPoint x="815" y="960" as="targetPoint" />
            <Array as="points">
              <mxPoint x="1160" y="827" />
            </Array>
          </mxGeometry>
        </mxCell>
        <mxCell id="74DpVo1cie8Z_NDiLxF8-60" value="Recuperar senha?" style="rhombus;whiteSpace=wrap;html=1;" parent="1" vertex="1">
          <mxGeometry x="577.5" y="780" width="105" height="95" as="geometry" />
        </mxCell>
        <mxCell id="2-5P5KqRT0Zb7ZeZS0hx-1" value="Se sim" style="text;html=1;align=center;verticalAlign=middle;resizable=0;points=[];autosize=1;strokeColor=none;fillColor=none;" parent="1" vertex="1">
          <mxGeometry x="670" y="788" width="60" height="30" as="geometry" />
        </mxCell>
        <mxCell id="2-5P5KqRT0Zb7ZeZS0hx-2" value="Se não" style="text;html=1;align=center;verticalAlign=middle;resizable=0;points=[];autosize=1;strokeColor=none;fillColor=none;" parent="1" vertex="1">
          <mxGeometry x="517.5" y="796" width="60" height="30" as="geometry" />
        </mxCell>
        <mxCell id="2-5P5KqRT0Zb7ZeZS0hx-8" value="" style="edgeStyle=orthogonalEdgeStyle;rounded=0;orthogonalLoop=1;jettySize=auto;html=1;exitX=0.283;exitY=1.033;exitDx=0;exitDy=0;exitPerimeter=0;entryX=0.5;entryY=0;entryDx=0;entryDy=0;" parent="1" source="XFyrsyvMlEconvTyk-SM-11" target="2-5P5KqRT0Zb7ZeZS0hx-7" edge="1">
          <mxGeometry relative="1" as="geometry">
            <mxPoint x="540" y="1000" as="sourcePoint" />
            <mxPoint x="640" y="1060" as="targetPoint" />
            <Array as="points">
              <mxPoint x="570" y="981" />
            </Array>
          </mxGeometry>
        </mxCell>
        <mxCell id="XFyrsyvMlEconvTyk-SM-42" style="edgeStyle=orthogonalEdgeStyle;rounded=0;orthogonalLoop=1;jettySize=auto;html=1;" edge="1" parent="1" source="2-5P5KqRT0Zb7ZeZS0hx-3" target="XFyrsyvMlEconvTyk-SM-41">
          <mxGeometry relative="1" as="geometry">
            <Array as="points">
              <mxPoint x="350" y="978" />
            </Array>
          </mxGeometry>
        </mxCell>
        <mxCell id="2-5P5KqRT0Zb7ZeZS0hx-3" value="Tentar&amp;nbsp; novamente?" style="rhombus;whiteSpace=wrap;html=1;" parent="1" vertex="1">
          <mxGeometry x="420" y="930" width="105" height="95" as="geometry" />
        </mxCell>
        <mxCell id="2-5P5KqRT0Zb7ZeZS0hx-6" value="Se sim" style="text;html=1;align=center;verticalAlign=middle;resizable=0;points=[];autosize=1;strokeColor=none;fillColor=none;" parent="1" vertex="1">
          <mxGeometry x="370" y="950" width="60" height="30" as="geometry" />
        </mxCell>
        <mxCell id="XFyrsyvMlEconvTyk-SM-1" style="edgeStyle=orthogonalEdgeStyle;rounded=0;orthogonalLoop=1;jettySize=auto;html=1;" edge="1" parent="1" source="2-5P5KqRT0Zb7ZeZS0hx-7" target="XFyrsyvMlEconvTyk-SM-9">
          <mxGeometry relative="1" as="geometry">
            <mxPoint x="420" y="1230" as="targetPoint" />
          </mxGeometry>
        </mxCell>
        <mxCell id="XFyrsyvMlEconvTyk-SM-15" value="" style="edgeStyle=orthogonalEdgeStyle;rounded=0;orthogonalLoop=1;jettySize=auto;html=1;exitX=1;exitY=0.5;exitDx=0;exitDy=0;" edge="1" parent="1" source="2-5P5KqRT0Zb7ZeZS0hx-7" target="XFyrsyvMlEconvTyk-SM-14">
          <mxGeometry relative="1" as="geometry" />
        </mxCell>
        <mxCell id="2-5P5KqRT0Zb7ZeZS0hx-7" value="Registrar?" style="rhombus;whiteSpace=wrap;html=1;" parent="1" vertex="1">
          <mxGeometry x="517.5" y="1080" width="105" height="95" as="geometry" />
        </mxCell>
        <mxCell id="XFyrsyvMlEconvTyk-SM-2" value="Acessar tela de login" style="rounded=0;whiteSpace=wrap;html=1;" vertex="1" parent="1">
          <mxGeometry x="385" y="220" width="120" height="60" as="geometry" />
        </mxCell>
        <mxCell id="XFyrsyvMlEconvTyk-SM-3" value="Inserir login" style="rounded=0;whiteSpace=wrap;html=1;" vertex="1" parent="1">
          <mxGeometry x="385" y="370" width="120" height="60" as="geometry" />
        </mxCell>
        <mxCell id="XFyrsyvMlEconvTyk-SM-55" style="edgeStyle=orthogonalEdgeStyle;rounded=0;orthogonalLoop=1;jettySize=auto;html=1;" edge="1" parent="1" source="XFyrsyvMlEconvTyk-SM-4" target="XFyrsyvMlEconvTyk-SM-53">
          <mxGeometry relative="1" as="geometry">
            <Array as="points">
              <mxPoint x="10" y="670" />
              <mxPoint x="10" y="2105" />
            </Array>
          </mxGeometry>
        </mxCell>
        <mxCell id="XFyrsyvMlEconvTyk-SM-4" value="Redirecionar para a tela principal" style="rounded=0;whiteSpace=wrap;html=1;" vertex="1" parent="1">
          <mxGeometry x="220" y="640" width="120" height="60" as="geometry" />
        </mxCell>
        <mxCell id="XFyrsyvMlEconvTyk-SM-6" value="Exibir mensagem de erro" style="rounded=0;whiteSpace=wrap;html=1;" vertex="1" parent="1">
          <mxGeometry x="570" y="640" width="120" height="60" as="geometry" />
        </mxCell>
        <mxCell id="XFyrsyvMlEconvTyk-SM-18" value="" style="edgeStyle=orthogonalEdgeStyle;rounded=0;orthogonalLoop=1;jettySize=auto;html=1;" edge="1" parent="1" source="XFyrsyvMlEconvTyk-SM-9">
          <mxGeometry relative="1" as="geometry">
            <mxPoint x="420" y="1330" as="targetPoint" />
          </mxGeometry>
        </mxCell>
        <mxCell id="XFyrsyvMlEconvTyk-SM-9" value="Acessar tela de registro" style="whiteSpace=wrap;html=1;" vertex="1" parent="1">
          <mxGeometry x="360" y="1190" width="120" height="60" as="geometry" />
        </mxCell>
        <mxCell id="XFyrsyvMlEconvTyk-SM-10" value="Se sim" style="text;html=1;align=center;verticalAlign=middle;resizable=0;points=[];autosize=1;strokeColor=none;fillColor=none;" vertex="1" parent="1">
          <mxGeometry x="465" y="1100" width="60" height="30" as="geometry" />
        </mxCell>
        <mxCell id="XFyrsyvMlEconvTyk-SM-11" value="Se não" style="text;html=1;align=center;verticalAlign=middle;resizable=0;points=[];autosize=1;strokeColor=none;fillColor=none;" vertex="1" parent="1">
          <mxGeometry x="510" y="950" width="60" height="30" as="geometry" />
        </mxCell>
        <mxCell id="XFyrsyvMlEconvTyk-SM-56" style="edgeStyle=orthogonalEdgeStyle;rounded=0;orthogonalLoop=1;jettySize=auto;html=1;entryX=0.5;entryY=0;entryDx=0;entryDy=0;" edge="1" parent="1" source="XFyrsyvMlEconvTyk-SM-14" target="XFyrsyvMlEconvTyk-SM-77">
          <mxGeometry relative="1" as="geometry">
            <Array as="points">
              <mxPoint x="800" y="1220" />
              <mxPoint x="800" y="1660" />
              <mxPoint x="1050" y="1660" />
            </Array>
          </mxGeometry>
        </mxCell>
        <mxCell id="XFyrsyvMlEconvTyk-SM-14" value="Sair do aplicativo" style="whiteSpace=wrap;html=1;" vertex="1" parent="1">
          <mxGeometry x="610" y="1190" width="120" height="60" as="geometry" />
        </mxCell>
        <mxCell id="XFyrsyvMlEconvTyk-SM-16" value="Se não" style="text;html=1;align=center;verticalAlign=middle;resizable=0;points=[];autosize=1;strokeColor=none;fillColor=none;" vertex="1" parent="1">
          <mxGeometry x="610" y="1100" width="60" height="30" as="geometry" />
        </mxCell>
        <mxCell id="XFyrsyvMlEconvTyk-SM-24" value="" style="edgeStyle=orthogonalEdgeStyle;rounded=0;orthogonalLoop=1;jettySize=auto;html=1;" edge="1" parent="1" target="XFyrsyvMlEconvTyk-SM-23">
          <mxGeometry relative="1" as="geometry">
            <mxPoint x="420" y="1250" as="sourcePoint" />
          </mxGeometry>
        </mxCell>
        <mxCell id="XFyrsyvMlEconvTyk-SM-27" value="" style="edgeStyle=orthogonalEdgeStyle;rounded=0;orthogonalLoop=1;jettySize=auto;html=1;" edge="1" parent="1" source="XFyrsyvMlEconvTyk-SM-23" target="XFyrsyvMlEconvTyk-SM-26">
          <mxGeometry relative="1" as="geometry" />
        </mxCell>
        <mxCell id="XFyrsyvMlEconvTyk-SM-23" value="Inserir dados de registro" style="whiteSpace=wrap;html=1;" vertex="1" parent="1">
          <mxGeometry x="360" y="1330" width="120" height="60" as="geometry" />
        </mxCell>
        <mxCell id="XFyrsyvMlEconvTyk-SM-29" value="" style="edgeStyle=orthogonalEdgeStyle;rounded=0;orthogonalLoop=1;jettySize=auto;html=1;" edge="1" parent="1" source="XFyrsyvMlEconvTyk-SM-26" target="XFyrsyvMlEconvTyk-SM-28">
          <mxGeometry relative="1" as="geometry" />
        </mxCell>
        <mxCell id="XFyrsyvMlEconvTyk-SM-36" value="" style="edgeStyle=orthogonalEdgeStyle;rounded=0;orthogonalLoop=1;jettySize=auto;html=1;" edge="1" parent="1" source="XFyrsyvMlEconvTyk-SM-26" target="XFyrsyvMlEconvTyk-SM-35">
          <mxGeometry relative="1" as="geometry" />
        </mxCell>
        <mxCell id="XFyrsyvMlEconvTyk-SM-26" value="Dados validos?" style="rhombus;whiteSpace=wrap;html=1;" vertex="1" parent="1">
          <mxGeometry x="367.5" y="1460" width="105" height="95" as="geometry" />
        </mxCell>
        <mxCell id="XFyrsyvMlEconvTyk-SM-33" value="" style="edgeStyle=orthogonalEdgeStyle;rounded=0;orthogonalLoop=1;jettySize=auto;html=1;" edge="1" parent="1" source="XFyrsyvMlEconvTyk-SM-28" target="XFyrsyvMlEconvTyk-SM-32">
          <mxGeometry relative="1" as="geometry" />
        </mxCell>
        <mxCell id="XFyrsyvMlEconvTyk-SM-28" value="Acessar tela de login" style="whiteSpace=wrap;html=1;" vertex="1" parent="1">
          <mxGeometry x="200" y="1610" width="120" height="60" as="geometry" />
        </mxCell>
        <mxCell id="XFyrsyvMlEconvTyk-SM-30" value="Se sim" style="text;html=1;align=center;verticalAlign=middle;resizable=0;points=[];autosize=1;strokeColor=none;fillColor=none;" vertex="1" parent="1">
          <mxGeometry x="320" y="1482" width="60" height="30" as="geometry" />
        </mxCell>
        <mxCell id="XFyrsyvMlEconvTyk-SM-34" style="edgeStyle=orthogonalEdgeStyle;rounded=0;orthogonalLoop=1;jettySize=auto;html=1;" edge="1" parent="1" source="XFyrsyvMlEconvTyk-SM-32" target="74DpVo1cie8Z_NDiLxF8-46">
          <mxGeometry relative="1" as="geometry">
            <mxPoint x="380" y="660" as="targetPoint" />
            <Array as="points">
              <mxPoint x="70" y="1780" />
              <mxPoint x="70" y="750" />
              <mxPoint x="419" y="750" />
            </Array>
          </mxGeometry>
        </mxCell>
        <mxCell id="XFyrsyvMlEconvTyk-SM-32" value="Inserir login" style="whiteSpace=wrap;html=1;" vertex="1" parent="1">
          <mxGeometry x="200" y="1750" width="120" height="60" as="geometry" />
        </mxCell>
        <mxCell id="XFyrsyvMlEconvTyk-SM-39" value="" style="edgeStyle=orthogonalEdgeStyle;rounded=0;orthogonalLoop=1;jettySize=auto;html=1;" edge="1" parent="1" source="XFyrsyvMlEconvTyk-SM-35" target="XFyrsyvMlEconvTyk-SM-40">
          <mxGeometry relative="1" as="geometry">
            <mxPoint x="585" y="1735" as="targetPoint" />
          </mxGeometry>
        </mxCell>
        <mxCell id="XFyrsyvMlEconvTyk-SM-35" value="Exibir mensagem de erro" style="whiteSpace=wrap;html=1;" vertex="1" parent="1">
          <mxGeometry x="517.5" y="1610" width="120" height="60" as="geometry" />
        </mxCell>
        <mxCell id="XFyrsyvMlEconvTyk-SM-37" value="Se não" style="text;html=1;align=center;verticalAlign=middle;resizable=0;points=[];autosize=1;strokeColor=none;fillColor=none;" vertex="1" parent="1">
          <mxGeometry x="465" y="1482" width="60" height="30" as="geometry" />
        </mxCell>
        <mxCell id="XFyrsyvMlEconvTyk-SM-45" value="" style="edgeStyle=orthogonalEdgeStyle;rounded=0;orthogonalLoop=1;jettySize=auto;html=1;" edge="1" parent="1" source="XFyrsyvMlEconvTyk-SM-40" target="XFyrsyvMlEconvTyk-SM-44">
          <mxGeometry relative="1" as="geometry">
            <Array as="points">
              <mxPoint x="460" y="1780" />
            </Array>
          </mxGeometry>
        </mxCell>
        <mxCell id="XFyrsyvMlEconvTyk-SM-50" value="" style="edgeStyle=orthogonalEdgeStyle;rounded=0;orthogonalLoop=1;jettySize=auto;html=1;" edge="1" parent="1" source="XFyrsyvMlEconvTyk-SM-40" target="XFyrsyvMlEconvTyk-SM-49">
          <mxGeometry relative="1" as="geometry" />
        </mxCell>
        <mxCell id="XFyrsyvMlEconvTyk-SM-40" value="Tentar novamente?&amp;nbsp;" style="rhombus;whiteSpace=wrap;html=1;" vertex="1" parent="1">
          <mxGeometry x="525" y="1732.5" width="105" height="95" as="geometry" />
        </mxCell>
        <mxCell id="XFyrsyvMlEconvTyk-SM-43" style="edgeStyle=orthogonalEdgeStyle;rounded=0;orthogonalLoop=1;jettySize=auto;html=1;" edge="1" parent="1" source="XFyrsyvMlEconvTyk-SM-41" target="74DpVo1cie8Z_NDiLxF8-46">
          <mxGeometry relative="1" as="geometry" />
        </mxCell>
        <mxCell id="XFyrsyvMlEconvTyk-SM-41" value="Inserir login" style="whiteSpace=wrap;html=1;" vertex="1" parent="1">
          <mxGeometry x="272.5" y="1010" width="120" height="60" as="geometry" />
        </mxCell>
        <mxCell id="XFyrsyvMlEconvTyk-SM-46" style="edgeStyle=orthogonalEdgeStyle;rounded=0;orthogonalLoop=1;jettySize=auto;html=1;" edge="1" parent="1" source="XFyrsyvMlEconvTyk-SM-44" target="XFyrsyvMlEconvTyk-SM-26">
          <mxGeometry relative="1" as="geometry" />
        </mxCell>
        <mxCell id="XFyrsyvMlEconvTyk-SM-44" value="Inserir dados de registro" style="whiteSpace=wrap;html=1;" vertex="1" parent="1">
          <mxGeometry x="360" y="1870" width="120" height="60" as="geometry" />
        </mxCell>
        <mxCell id="XFyrsyvMlEconvTyk-SM-47" value="Se sim" style="text;html=1;align=center;verticalAlign=middle;resizable=0;points=[];autosize=1;strokeColor=none;fillColor=none;" vertex="1" parent="1">
          <mxGeometry x="472.5" y="1750" width="60" height="30" as="geometry" />
        </mxCell>
        <mxCell id="XFyrsyvMlEconvTyk-SM-54" style="edgeStyle=orthogonalEdgeStyle;rounded=0;orthogonalLoop=1;jettySize=auto;html=1;" edge="1" parent="1" source="XFyrsyvMlEconvTyk-SM-49" target="XFyrsyvMlEconvTyk-SM-53">
          <mxGeometry relative="1" as="geometry" />
        </mxCell>
        <mxCell id="XFyrsyvMlEconvTyk-SM-49" value="Sair do aplicativo" style="whiteSpace=wrap;html=1;" vertex="1" parent="1">
          <mxGeometry x="650" y="1870" width="120" height="60" as="geometry" />
        </mxCell>
        <mxCell id="XFyrsyvMlEconvTyk-SM-51" value="" style="ellipse;html=1;shape=endState;fillColor=#000000;strokeColor=#ff0000;" vertex="1" parent="1">
          <mxGeometry x="593" y="2250" width="30" height="30" as="geometry" />
        </mxCell>
        <mxCell id="XFyrsyvMlEconvTyk-SM-80" value="" style="edgeStyle=orthogonalEdgeStyle;rounded=0;orthogonalLoop=1;jettySize=auto;html=1;" edge="1" parent="1" source="XFyrsyvMlEconvTyk-SM-53" target="XFyrsyvMlEconvTyk-SM-51">
          <mxGeometry relative="1" as="geometry" />
        </mxCell>
        <mxCell id="XFyrsyvMlEconvTyk-SM-53" value="" style="rhombus;whiteSpace=wrap;html=1;" vertex="1" parent="1">
          <mxGeometry x="568" y="2065" width="80" height="80" as="geometry" />
        </mxCell>
        <mxCell id="XFyrsyvMlEconvTyk-SM-59" value="" style="edgeStyle=orthogonalEdgeStyle;rounded=0;orthogonalLoop=1;jettySize=auto;html=1;" edge="1" parent="1" source="XFyrsyvMlEconvTyk-SM-57" target="XFyrsyvMlEconvTyk-SM-60">
          <mxGeometry relative="1" as="geometry">
            <mxPoint x="1160" y="1040" as="targetPoint" />
          </mxGeometry>
        </mxCell>
        <mxCell id="XFyrsyvMlEconvTyk-SM-57" value="Inserir Email" style="whiteSpace=wrap;html=1;" vertex="1" parent="1">
          <mxGeometry x="1100" y="910" width="120" height="60" as="geometry" />
        </mxCell>
        <mxCell id="XFyrsyvMlEconvTyk-SM-62" value="" style="edgeStyle=orthogonalEdgeStyle;rounded=0;orthogonalLoop=1;jettySize=auto;html=1;" edge="1" parent="1" source="XFyrsyvMlEconvTyk-SM-60" target="XFyrsyvMlEconvTyk-SM-61">
          <mxGeometry relative="1" as="geometry" />
        </mxCell>
        <mxCell id="XFyrsyvMlEconvTyk-SM-66" value="" style="edgeStyle=orthogonalEdgeStyle;rounded=0;orthogonalLoop=1;jettySize=auto;html=1;" edge="1" parent="1" source="XFyrsyvMlEconvTyk-SM-60" target="XFyrsyvMlEconvTyk-SM-65">
          <mxGeometry relative="1" as="geometry" />
        </mxCell>
        <mxCell id="XFyrsyvMlEconvTyk-SM-60" value="Email&amp;nbsp; encontrado?" style="rhombus;whiteSpace=wrap;html=1;" vertex="1" parent="1">
          <mxGeometry x="1107.5" y="1040" width="105" height="95" as="geometry" />
        </mxCell>
        <mxCell id="XFyrsyvMlEconvTyk-SM-86" style="edgeStyle=orthogonalEdgeStyle;rounded=0;orthogonalLoop=1;jettySize=auto;html=1;" edge="1" parent="1" source="XFyrsyvMlEconvTyk-SM-61" target="XFyrsyvMlEconvTyk-SM-77">
          <mxGeometry relative="1" as="geometry">
            <mxPoint x="1150" y="2030" as="targetPoint" />
            <Array as="points">
              <mxPoint x="1140" y="1240" />
              <mxPoint x="1140" y="1668" />
              <mxPoint x="1180" y="1668" />
              <mxPoint x="1180" y="2105" />
            </Array>
          </mxGeometry>
        </mxCell>
        <mxCell id="XFyrsyvMlEconvTyk-SM-61" value="Enviar email com nova senha" style="whiteSpace=wrap;html=1;" vertex="1" parent="1">
          <mxGeometry x="940" y="1210" width="120" height="60" as="geometry" />
        </mxCell>
        <mxCell id="XFyrsyvMlEconvTyk-SM-70" value="" style="edgeStyle=orthogonalEdgeStyle;rounded=0;orthogonalLoop=1;jettySize=auto;html=1;" edge="1" parent="1" source="XFyrsyvMlEconvTyk-SM-65" target="XFyrsyvMlEconvTyk-SM-69">
          <mxGeometry relative="1" as="geometry" />
        </mxCell>
        <mxCell id="XFyrsyvMlEconvTyk-SM-65" value="Exibir mensagem de erro" style="whiteSpace=wrap;html=1;" vertex="1" parent="1">
          <mxGeometry x="1285" y="1210" width="120" height="60" as="geometry" />
        </mxCell>
        <mxCell id="XFyrsyvMlEconvTyk-SM-75" value="" style="edgeStyle=orthogonalEdgeStyle;rounded=0;orthogonalLoop=1;jettySize=auto;html=1;exitX=0;exitY=0.5;exitDx=0;exitDy=0;" edge="1" parent="1" source="XFyrsyvMlEconvTyk-SM-69" target="XFyrsyvMlEconvTyk-SM-74">
          <mxGeometry relative="1" as="geometry" />
        </mxCell>
        <mxCell id="XFyrsyvMlEconvTyk-SM-82" value="" style="edgeStyle=orthogonalEdgeStyle;rounded=0;orthogonalLoop=1;jettySize=auto;html=1;" edge="1" parent="1" source="XFyrsyvMlEconvTyk-SM-69" target="XFyrsyvMlEconvTyk-SM-81">
          <mxGeometry relative="1" as="geometry" />
        </mxCell>
        <mxCell id="XFyrsyvMlEconvTyk-SM-69" value="Tentar&amp;nbsp; novamente?" style="rhombus;whiteSpace=wrap;html=1;" vertex="1" parent="1">
          <mxGeometry x="1292.5" y="1332.5" width="105" height="95" as="geometry" />
        </mxCell>
        <mxCell id="XFyrsyvMlEconvTyk-SM-72" value="Se sim" style="text;html=1;align=center;verticalAlign=middle;resizable=0;points=[];autosize=1;strokeColor=none;fillColor=none;" vertex="1" parent="1">
          <mxGeometry x="1250" y="1350" width="60" height="30" as="geometry" />
        </mxCell>
        <mxCell id="XFyrsyvMlEconvTyk-SM-76" style="edgeStyle=orthogonalEdgeStyle;rounded=0;orthogonalLoop=1;jettySize=auto;html=1;" edge="1" parent="1" source="XFyrsyvMlEconvTyk-SM-74" target="XFyrsyvMlEconvTyk-SM-60">
          <mxGeometry relative="1" as="geometry">
            <Array as="points">
              <mxPoint x="1160" y="1497" />
            </Array>
          </mxGeometry>
        </mxCell>
        <mxCell id="XFyrsyvMlEconvTyk-SM-74" value="Inserir Email" style="whiteSpace=wrap;html=1;" vertex="1" parent="1">
          <mxGeometry x="1200" y="1460" width="120" height="60" as="geometry" />
        </mxCell>
        <mxCell id="XFyrsyvMlEconvTyk-SM-79" style="edgeStyle=orthogonalEdgeStyle;rounded=0;orthogonalLoop=1;jettySize=auto;html=1;" edge="1" parent="1" source="XFyrsyvMlEconvTyk-SM-77" target="XFyrsyvMlEconvTyk-SM-53">
          <mxGeometry relative="1" as="geometry" />
        </mxCell>
        <mxCell id="XFyrsyvMlEconvTyk-SM-77" value="" style="rhombus;whiteSpace=wrap;html=1;" vertex="1" parent="1">
          <mxGeometry x="1010" y="2065" width="80" height="80" as="geometry" />
        </mxCell>
        <mxCell id="XFyrsyvMlEconvTyk-SM-84" style="edgeStyle=orthogonalEdgeStyle;rounded=0;orthogonalLoop=1;jettySize=auto;html=1;" edge="1" parent="1" source="XFyrsyvMlEconvTyk-SM-81" target="XFyrsyvMlEconvTyk-SM-77">
          <mxGeometry relative="1" as="geometry">
            <Array as="points">
              <mxPoint x="1520" y="2230" />
              <mxPoint x="1050" y="2230" />
            </Array>
          </mxGeometry>
        </mxCell>
        <mxCell id="XFyrsyvMlEconvTyk-SM-81" value="Fechar aplicativo" style="whiteSpace=wrap;html=1;" vertex="1" parent="1">
          <mxGeometry x="1460" y="1467" width="120" height="60" as="geometry" />
        </mxCell>
        <mxCell id="XFyrsyvMlEconvTyk-SM-83" value="Se não" style="text;html=1;align=center;verticalAlign=middle;resizable=0;points=[];autosize=1;strokeColor=none;fillColor=none;" vertex="1" parent="1">
          <mxGeometry x="1390" y="1350" width="60" height="30" as="geometry" />
        </mxCell>
      </root>
    </mxGraphModel>
  </diagram>
</mxfile>
